<svg xmlns="http://www.w3.org/2000/svg" xmlns:xlink="http://www.w3.org/1999/xlink" aria-hidden="true" focusable="false" width="1em" height="1em" style="-ms-transform: rotate(360deg); -webkit-transform: rotate(360deg); transform: rotate(360deg);" preserveAspectRatio="xMidYMid meet" viewBox="0 0 26 26"><path d="M19 0c-2.209 0-4 1.793-4 4 0 2.665 3.5 6.306 3.5 9.969h1C19.501 10.306 23 6.77 23 4c0-2.207-1.791-4-4-4zm0 1.938a2.063 2.063 0 1 1-.002 4.126A2.063 2.063 0 0 1 19 1.937zM13 2C6.383 2 1 7.383 1 14s5.383 12 12 12 12-5.383 12-12c0-2.01-.498-3.896-1.375-5.563-.133.264-.267.515-.406.782-.263.508-.54 1.021-.782 1.531.25.715.422 1.471.5 2.25h-1.312c-.072.335-.125.65-.125.969V15h1.438a9.88 9.88 0 0 1-1.282 4H18.72c.22-.938.347-1.975.437-3.031H17.187a18.72 18.72 0 0 1-.53 3.031H9.343a19.24 19.24 0 0 1-.594-4h7.75v-1.031a4.68 4.68 0 0 0-.125-.969H8.75a19.24 19.24 0 0 1 .594-4h5.344a31.369 31.369 0 0 1-.97-2h-3.687c.827-1.887 1.92-3 2.969-3 0-.695.125-1.348.344-1.969C13.229 2.027 13.116 2 13 2zM8.875 4.906a12.364 12.364 0 0 0-1 2.094h-2a9.991 9.991 0 0 1 3-2.094zM4.344 9H7.28a21.423 21.423 0 0 0-.531 4H3.062a9.865 9.865 0 0 1 1.282-4zm-1.282 6H6.75c.059 1.425.243 2.77.531 4H4.344a9.895 9.895 0 0 1-1.282-4zm2.813 6h2c.288.776.625 1.473 1 2.094a9.991 9.991 0 0 1-3-2.094zm4.156 0h5.938c-.827 1.887-1.92 3-2.969 3s-2.143-1.113-2.969-3zm8.094 0h2a9.991 9.991 0 0 1-3 2.094c.375-.62.712-1.317 1-2.094z" fill="#cacaca"/></svg>