<?xml version="1.0" encoding="utf-8"?>
<!-- Generator: Adobe Illustrator 22.1.0, SVG Export Plug-In . SVG Version: 6.00 Build 0)  -->
<svg version="1.1" id="Layer_1" xmlns="http://www.w3.org/2000/svg" xmlns:xlink="http://www.w3.org/1999/xlink" x="0px" y="0px"
	 viewBox="0 0 31.5 32.2" style="enable-background:new 0 0 31.5 32.2;" xml:space="preserve">
<style type="text/css">
	.st0{fill:#5269A8;}
	.st1{fill:#FD7260;}
</style>
<path class="st0" d="M25.3,1.6c0,0,0.3-0.7,0.5-0.9c0.1-0.2,0.3,0.1,0.4,0.1s0.3,0.1,0.5-0.1c0.2-0.3,0.6-0.3,0.6-0.1
	s0.3,0.3,0.3,0.3s0.5-0.2,0.6,0c0.1,0.2-0.1,0.6,0.1,0.6c0.2,0,0.6-0.2,0.6,0.1s-0.2,0.7,0,0.7c0.3,0,0.7,0.1,0.5,0.4
	c-0.2,0.3-0.1,0.5-0.1,0.7s0,0.5,0,0.5s0.4,0.4,0.3,1.2c0,0-0.5-0.4-1.1-0.3c0,0,0,0.4-0.1,0.8c-0.1,0.4-0.2,0.5-0.4,0.6
	c-0.2,0-0.5,0.2-0.7,0.2s-0.4,1.8-0.4,3.6c0,1.8,0.6,4.3,0.5,5.9c-0.1,1.6-0.6,4.2-3.3,5.9c-2.7,1.7-5.7,3.9-6.3,4.1
	c-0.6,0.3-0.7,0.3-0.7,0.3s0,2.3,0.5,2.5s1.4-0.3,1.7-0.4c0.3-0.2,1-0.1,1,0.3c0,0-0.5-0.2-0.5,0.1S19,28.8,19,28.8
	s-0.7,0.4-0.5,0.4c0.2,0,2.1-0.1,2.5,0c0.4,0.1,0.7,0.5,0.6,1.1c0,0-0.2-0.6-0.6-0.5c-0.4,0.1-0.8,0.1-1.4,0
	c-0.5-0.1-1.5-0.3-1.4-0.2c0.1,0.2,0.3,0.4,0.8,0.7c0.5,0.3,0.9,0.9,0.3,1.4c0,0,0-0.7-0.2-0.6s-0.6-0.1-0.9-0.4
	c-0.3-0.3-0.6-0.6-1.1-0.6c-0.5-0.1-0.6-0.7-0.7-0.8c0-0.1-0.6,0.1-0.7,0.3c-0.1,0.2-0.3,0.3-0.2,0.7c0,0-0.3-0.3-0.1-0.6
	c0.1-0.3,0.6-0.6,0.8-0.8c0.2-0.2,0-0.4,0-0.8c0-0.4-0.2-1.7-0.2-1.7s-1.5-0.2-1.8-0.5c0,0-0.1,0.7-0.2,1.2
	c-0.1,0.5-0.4,1.4-0.6,1.6c-0.2,0.2-0.6,1.1-0.6,1.4s-0.3,1.3-1.4,1.1c0,0,0.5-0.2,0.5-0.5c0-0.2-0.3-0.6,0.1-1s0.9-1.1,0.7-1.1
	c-0.2,0.1-0.5,0.6-1.2,0.6c-0.6,0-0.9-0.4-0.9-0.6c0,0,0.3,0.4,0.6,0.2c0.3-0.1,0.1-0.6,0.6-0.6c0.4,0,0.8,0,1.2-0.4
	c0.3-0.4-0.2-0.5-0.5-0.5s-0.7-0.2-0.9,0.2c0,0,0-0.4,0.3-0.5c0.3-0.1,1.1,0,1.1-0.3c0.1-0.2,0.2-1.3,0.2-1.3S11,25,9.2,22.7
	c-1.1-1.4-1.1-3-1.1-3s-3.6-1.9-3.8-4.8l0.9,0.2c0,0-2.7-2.3-2.9-4.6l1,0.3c0,0-0.9-0.2-0.9-1.9c0,0,1.3,0,1.8,0.9
	c0,0-1.5-0.9-0.9-2.7c0,0,1.8,0.9,2,1.7c0,0-0.6-0.1-0.6-1.8c0,0,3.6,0.4,5.7,3.4c0,0,1.8,0,3.1,0.3c1.3,0.3,4.9,0.8,6.4-1.2
	C21.3,7.5,21.8,2.4,25.3,1.6z"/>
<g>
	<path class="st1" d="M15.9,23.2l-0.8-0.7c-2.8-2.6-4.7-4.3-4.7-6.4c0-1.7,1.3-3,3-3c1,0,1.9,0.4,2.5,1.2c0.6-0.7,1.5-1.2,2.5-1.2
		c1.7,0,3,1.3,3,3c0,2.1-1.9,3.8-4.7,6.4L15.9,23.2z"/>
</g>
</svg>
