<svg xmlns="http://www.w3.org/2000/svg" xmlns:xlink="http://www.w3.org/1999/xlink" version="1.1" x="0px" y="0px" viewBox="0 0 100 125" style="enable-background:new 0 0 100 100;" xml:space="preserve"><g><path stroke="#43b1b0" stroke-width="3" d="M55.3,25.1C54.5,25.5,54,26.2,54,27v9.9c0,0.1-0.1,0.1-0.2,0.2c-35.3,3.7-38.4,29.1-39.8,40c-0.2,1.4-0.3,2.5-0.5,3.3h0   c-0.2,0.9,0.3,1.8,1.2,2.1c0.2,0.1,0.4,0.1,0.6,0.1c0.6,0,1.1-0.3,1.4-0.9C23.5,69.2,30.9,59,53.9,60c0,0,0.1,0.1,0.1,0.1V70   c0,0.8,0.6,1.8,1.5,2.2c0.8,0.3,1.6,0.1,2.1-0.5l26.7-22.6c0.4-0.3,0.7-0.9,0.7-1.4c0-0.5-0.3-1.1-0.7-1.4L57.6,25.2   C56.9,24.7,55.9,24.8,55.3,25.1z M56.3,70.3C56.3,70.3,56.3,70.3,56.3,70.3c-0.1,0-0.3-0.2-0.3-0.3V60c0-0.9-1-2-2-2   c-23.4-1-31.7,9.4-38.3,21.4c0.1-0.7,0.2-1.4,0.3-2.2c1.4-11.3,4.3-34.8,38.1-38.2c0.8-0.1,1.9-1,1.9-2l0-10c0-0.1,0.3-0.2,0.4-0.2   c0,0,0,0,0,0l26.4,20.9L56.3,70.3z"/></g></svg>